<svg xmlns="http://www.w3.org/2000/svg" viewBox="0 0 1110.5 607.02"><defs><style>.cls-1{fill:#83bd43;}.cls-2{fill:#1d1d1b;}.cls-3{fill:#95c121;}</style></defs><title>icon</title><g id="LOGO"><path class="cls-1" d="M863.21,221.75s-54-88.49-55.41-90.23S904.23,153,904.23,153l76-80.81,10,89.48,82.47,16.08-74.16,71s6.73,85,3.9,86.84-69.24-47.09-69.24-47.09l-98.38,49.87"/><path class="cls-2" d="M286.6,466.89s-35.79,57.56-36.38,58.93-15.84-62.65-15.84-62.65L164.82,442.6l49.31-32.19-14.89-52.89,63.28,22.41s47.66-29,49.56-27.85S305,406.39,305,406.39l58.09,42.76"/><path class="cls-2" d="M67.37,84.19a260.47,260.47,0,0,0,18.68-27l5.23,26a3.61,3.61,0,0,0,.63,1.64,3.56,3.56,0,0,0,2,1L127.75,94l-23,12.71a8,8,0,0,0-3.15,2.53,7.7,7.7,0,0,0-.85,3.74c-.64,14.16,2.13,28.31,1.42,42.46L79.33,126.21a2,2,0,0,0-2.82-.85L37.27,139.45c6-10.42,15.41-18.52,21.94-28.64.63-1,1.25-2.17.79-3.24A3.7,3.7,0,0,0,58.15,106L29.2,90.92c12.22-4.34,26.72.65,38.19-5.39"/><path class="cls-3" d="M430.79,187.46a24.39,24.39,0,0,1-.84-10c.08-.73.19-1.42.29-2.07.69-4.57,2-13.09-4.49-20.67-7.9-9.29-19.55-8.09-23.93-7.64-5.09.53-9.37,1.13-12.95,1.74a257.24,257.24,0,0,0,2.52-35.5c0-3.76-.06-12.58-6.8-19.75-3.43-3.65-9.76-8.06-20.44-8.31-14.86-.37-33.3,7.64-45.91,19.87a44.43,44.43,0,0,0-6.85,7.79,45.09,45.09,0,0,0-14.1-4.33c-.38-1.1-.78-2.19-1.22-3.3C286.15,80.38,259.93,49.88,223.7,38c-5-1.64-49.79-15.27-87.93,9.67C103.24,68.93,82.37,116.18,82.62,168c.23,49.29,19.27,90.82,50.94,111.1,16.59,10.63,38.07,16.12,60.76,16.12a146.92,146.92,0,0,0,42-6.21c19.28-5.78,35.4-14.9,46.88-26.15a28.33,28.33,0,0,0,5.9,11.21c8.75,10.12,21,10.14,30,10.16a62.81,62.81,0,0,1,11.43.7,39.66,39.66,0,0,0,7,.58,46.74,46.74,0,0,0,6.52-.46c2.41-.33,9.07-1.27,14.09-6.23A44.21,44.21,0,0,0,370,284a47.5,47.5,0,0,0,12.2,1.54,51.88,51.88,0,0,0,26.14-7c8.07-4.82,13.55-11.72,15.41-19.45,2.35-9.7-1.79-17.63-11.11-32.22q-2.1-3.28-4-6.13c7.08-1.34,14.08-4,19.13-11C434.09,200.91,432,192.16,430.79,187.46Zm-169.53-2c-1.06.8-2,1.59-2.93,2.3-4.68,3.78-10,8.06-18.19,10.92-4.44,1.54-17.95,6.25-26,1.42-8.94-5.37-9.86-23.08-10.41-33.66-.46-8.73-1.08-20.69,6.05-29.36a35,35,0,0,1,5-4.92c-1,4.91-2.13,12.35,2,19.71,5.41,9.65,18,15.17,34.56,15.17h.53a70.82,70.82,0,0,0,10.76-.91A43.85,43.85,0,0,0,261.26,185.43Z"/><path class="cls-3" d="M855.32,174.46a24.37,24.37,0,0,1-.85-10c.08-.74.19-1.42.29-2.07.69-4.58,2-13.09-4.49-20.67-7.91-9.29-19.55-8.09-23.93-7.64-5.09.53-9.37,1.13-13,1.74a254.12,254.12,0,0,0,2.52-35.5c0-3.76-.06-12.58-6.8-19.75-3.43-3.65-9.76-8.06-20.44-8.31-14.8-.39-33.3,7.64-45.92,19.88-3.08,3-5.74,5.58-8,9.73a37.05,37.05,0,0,0-4.67,18.69,51.36,51.36,0,0,0-35,21.43,24.49,24.49,0,0,0-4.67-2.69A24.94,24.94,0,0,0,675,138a162,162,0,0,0-42.85-53.71C600.52,58.74,538.37,31.5,496.72,61c-42,29.69-36.52,98-35.76,105.64a114.87,114.87,0,0,0,4.2,21.23,188.61,188.61,0,0,1,6,30.74c1.13,9.11,1.62,16.14,2,21.8.95,13.45,1.69,24.07,11.58,33.42,8.64,8.17,20.65,11.72,33.42,11.72,17.26,0,35.92-6.49,49.51-16.83,4.95-3.76,11.61-8.82,15.61-17.94a26.94,26.94,0,0,0,5.7,10.8c14.44,17,42,12.44,55.93,7a66.81,66.81,0,0,0,25.62-18,26.33,26.33,0,0,0,3.75,6c7.57,9.2,19.56,12.51,31.27,12.51a67.62,67.62,0,0,0,15-1.72c16-3.66,26.65-12,29.27-22.83,2.34-9.7-2.66-16.74-5.06-20.13a18.13,18.13,0,0,1-3.54-7.14c-1.49-6.1-.07-11.48.7-14.37,1.81-6.85,3.28-10.14,4.28-11.65.6,2.69,1.18,5.43,1.77,8.29,4.7,22.62,10,48.26,30.83,63.69A45.93,45.93,0,0,0,794.51,271a47.57,47.57,0,0,0,12.21,1.54,51.84,51.84,0,0,0,26.13-7c8.07-4.81,13.55-11.72,15.41-19.45,2.35-9.71-1.79-17.64-11.1-32.22-1.4-2.19-2.74-4.23-4-6.13,7.08-1.34,14.08-4,19.13-11C858.61,187.91,856.47,179.16,855.32,174.46ZM585.07,223.89c-2.15-9.14-6.47-18.94-11.52-30.37-1.59-3.61-2.79-6.11-3.71-8-.48-1-1-2.13-1.22-2.62l0-.21c-.7-6.2,2.19-12.86,4-14.2,1.72.27,5.74,3,8.52,6.31,2.46,2.92,5.2,11.42,5.52,26.51A118.86,118.86,0,0,1,585.07,223.89Z"/><path class="cls-3" d="M796,375.65l-.4-.78c-5.41-10.49-12.13-23.55-27-33.07-1.15-.73-2.72-1.73-4.64-2.88a36,36,0,0,0,8.5-11.89c4.85-11.11,5.94-29.49-16.41-54-14.25-15.61-31.76-21.2-40.93-23.15-28.64-6.08-47.57,2.39-58.41,10.57C636.07,276,632.38,298.64,630.4,310.8c-1,6.05-2.09,12.85-1.83,19.93a68.63,68.63,0,0,0-21.89-14.4c-8.87-3.61-19.55-5.59-42.83-3.49-25.48,2.31-42.89,3.89-55.32,8.75a60,60,0,0,0-16.83-19.44c-4.15-3.08-26-18-49.2-9.19s-29.88,34.26-31.37,41.86c-3.75,19,2.58,33.45,6.76,43,1.2,2.73,3,6.78,3.18,8.43-2.08,3.29-14,7.76-23.67,3.27-11.66-5.4-12.36-22.83-12.37-22.94-.14-7.1,5.13-14,9.77-20.06,5.35-7,11.41-14.93,9.12-25.31a21.06,21.06,0,0,0-11.26-14.15c-26.12-13.72-47.87-2.54-55,1.13-.42.21-.77.4-1.06.53-11.1,5.2-22.6,17.29-23.08,17.81-12.65,13.38-17.51,36.21-17.69,48.29-.64,44.09.66,49.55,4.86,60.18.48,1.23,1,2.58,1.61,4.33,5.1,15.16,17.62,36.64,48.49,53a104.55,104.55,0,0,0,49.48,12.11,121.16,121.16,0,0,0,38.55-6.39,114,114,0,0,0,45.62-29.57A221.55,221.55,0,0,0,478,500.43c-5,36.79-1.47,55.78,12.16,65.55A35.12,35.12,0,0,0,511,572.34c11.66,0,22.56-4.59,28.12-7.39,13.81-7,30.78-22.89,33.15-44.93,1.37-12.7-2.81-21.06-6.5-28.44a69.51,69.51,0,0,1-7.26-20.41,55.56,55.56,0,0,0,6.45,2.54c30.38,9.85,59-9.34,62.15-11.56.68-.47,1.3-1,1.94-1.44,12.52,17.51,33.25,29.71,46.7,35a94.86,94.86,0,0,0,35,6.64c31.1,0,54.64-14.78,58-17,8.57-5.66,31.32-20.71,38-49.87C812.92,408.54,801.46,386.33,796,375.65Zm-211,12.18a9.72,9.72,0,0,1,4.81,3.35,8.84,8.84,0,0,1,1.77,5.48c-.29,4.19-4,8.17-6.92,8.48l-.19,0A35.93,35.93,0,0,0,584.94,387.83Zm99-6.47a36.8,36.8,0,0,1,6,1.92l.16.18a6.32,6.32,0,0,1,.65,1.07,6.88,6.88,0,0,1-2,1l-.58-.45a40.72,40.72,0,0,0-6.56-4.35Zm-12.3-3.82-.73-.1a36.12,36.12,0,0,0-14.33,1.15,91.55,91.55,0,0,0-3-8.93A106.34,106.34,0,0,0,671.63,377.54Zm-41.45-17.88Z"/><path class="cls-3" d="M1024.49,291.34c-9.93-19.27-33.45-30.66-52.42-25.38-11,3.06-20.44,11.48-26.48,23.69-.53,1.06-1,2.14-1.48,3.24a32,32,0,0,0-1.66-3.89C932.52,269.72,909,258.34,890,263.61c-11,3.07-20.44,11.48-26.49,23.69-7.57,15.29-8.79,34.37-3.11,48.6,3.44,8.62,9,14.71,13.09,19.15,1.07,1.17,2.4,2.62,3.31,3.76-.64.94-1.36,2-2.17,3.31-5.45,8.69-11.71,22.77-13.78,34.88-10.6.71-16.86,5.47-20.43,10.06a27.33,27.33,0,0,0-5.15,20.4,40.72,40.72,0,0,0,15.1,26.1c2.81,2.18,11.24,7.87,22.29,7.87a32.34,32.34,0,0,0,10.75-1.85c14.73-5.16,24.43-19.79,22.56-34a28,28,0,0,0-6.88-14.75c14.25-16.68,29.18-45.12,35.55-59.81,2.59-6,4.72-11.52,6.44-16.74.41,1.36.84,2.7,1.36,4,3.44,8.62,9,14.71,13.09,19.16,1.07,1.16,2.4,2.62,3.31,3.75-.64,1-1.36,2-2.17,3.31-5.45,8.7-11.71,22.77-13.78,34.88-10.61.72-16.86,5.47-20.43,10.07a27.3,27.3,0,0,0-5.15,20.39,40.72,40.72,0,0,0,15.1,26.1c2.81,2.18,11.24,7.87,22.29,7.87a32.34,32.34,0,0,0,10.75-1.85c14.73-5.16,24.43-19.79,22.56-34a28,28,0,0,0-6.88-14.75c14.25-16.68,29.18-45.12,35.55-59.8C1029.1,324.79,1031.57,305.1,1024.49,291.34Z"/><path class="cls-2" d="M229.91,119.6c5.79,8.76-2.18,18.23,1.17,24.22,5.62,10,42.53,9.72,51.18-6.25,10.83-20-19.85-69.6-63.68-84-2.3-.76-41.84-13.1-73.83,7.81C87.31,98.94,81.18,226.1,142.4,265.32c45,28.83,123.54,8.25,140.25-29.3,6.91-15.54,4.82-37.5-2.73-40.63-6.78-2.82-13.38,11.43-34.38,18.75-6.34,2.21-25.21,8.78-39.85,0-16.43-9.86-17.64-33.13-18.36-46.88-.52-10-1.41-27,9.77-40.63,1.4-1.7,13.62-16.21,25-12.89A15.07,15.07,0,0,1,229.91,119.6Z"/><path class="cls-2" d="M280.83,165.7c8.23-12,29.49-16.48,37.89-9.77,2.91,2.32,3.8,5.6,4.3,7.42,17.39,63.65,19.13,64.55,23.05,96.89.12,1,2.25,4.48.78,6.64-.32.47-1.16,1.41-5.08,1.95a27.81,27.81,0,0,1-8.2,0c-13.58-2.56-25.87,1.66-32-5.47-2.9-3.36-3-7.57-3.12-9.76C296.63,219.36,266.82,186.1,280.83,165.7Z"/><path class="cls-2" d="M283.56,152c-5.77-4.51-5-19.51,2.35-25,8.54-6.4,23.76,1.82,30.86,10.16,4.41,5.18,11.43,18.8,7.52,20.31-1.36.53-7.46-6-12.55-6.88-8.89-1.63-10.78,3.75-22.32,3C286.89,153.42,285.17,153.28,283.56,152Z"/><path class="cls-2" d="M330.25,170.47c-5.27-24.63-12.24-35.7-5.67-47.67,1.1-2,2.43-3.28,5.08-5.86,13.8-13.38,36.09-19.43,43-12.11,2.26,2.4,2.33,5.67,2.35,8.6.15,32-7.34,49.57-1.56,53.91,3.21,2.41,7.42-1.58,30.08-3.91,3-.3,7.49-.71,9.76,2,2,2.35.94,5.57.39,10.15-1.74,14.58,4.65,19.23.78,24.62-2.81,3.92-8.42,4.58-16,5.47-10.61,1.24-14.85-1.46-16.41.78-2.22,3.19,5,10.77,16.8,29.3,9.28,14.52,9.55,17.19,9,19.53-2.34,9.73-19.9,16.53-33.59,12.89A29.34,29.34,0,0,1,364,263.05c-19.09-14.14-21.55-42.25-27.35-66.8C332.47,178.38,332.4,180.51,330.25,170.47Z"/><path d="M621.83,97c-28.11-22.67-82-46.42-115.64-22.66C471.5,98.89,476.89,161,477.28,165c1.74,17.49,6.29,20.31,10.16,51.56,3.69,29.81.89,38,8.6,45.32,13.86,13.11,44.43,6.9,61.72-6.25,4.48-3.41,8.73-6.63,10.94-12.5,4-10.55-1.21-22.71-10.16-43-4.56-10.35-5.73-11.1-6.25-15.63-1.37-12,4.29-29.05,16.41-32,12.28-3,23.73,10.21,25,11.71,2.29,2.72,8.83,11.33,9.38,36.73.67,31.35-8.81,41.46-1.56,50,7.88,9.31,26.86,6.46,37.5,2.35,18-7,26.28-23,28.13-26.57C685.7,190.79,663,130.19,621.83,97Zm-41.41,36.72c-1.71,3.13-7.74-.34-17.19,2.35-15.86,4.51-19,20-25.78,18.75s-14.05-18.51-7-31.25c6.23-11.31,20.69-13.61,30.48-10.94C573.63,116.12,582.88,129.24,580.42,133.73Z"/><path d="M666.67,171.17c.1-2.92.44-9.8,5.47-14.07,2.7-2.29,7.59-4.53,11.72-2.73s5.42,6.69,6.25,9.76c1.87,7-.93,9,1.17,14.85.19.54,3.22,8.7,9,9.18,1.76.15,4.29-.38,5.47-2.15,1.84-2.75-.74-6.73-2-10.55-3.25-10.21,2.8-20.73,3.91-22.65,6.77-11.79,24.41-20.22,36.72-14.07,8.05,4,11.15,12.95,12.89,18,1.58,4.57,4.1,11.81.78,15.63-3.52,4.06-9.49-.53-17.19,2.73-9.67,4.1-13,16.75-14.84,23.64-1.08,4.07-3.21,12.51-.78,22.46,3,12.2,9.82,14.44,8.59,19.53-2.57,10.67-36.7,17.86-46.88,5.47-6.26-7.61,3-14.75-1.17-32.42C681.08,193.83,666,189.24,666.67,171.17Z"/><path class="cls-2" d="M754.77,157.47c-5.27-24.63-12.24-35.7-5.67-47.66,1.1-2,2.43-3.29,5.08-5.86,13.8-13.39,36.09-19.44,43-12.11,2.26,2.39,2.34,5.66,2.35,8.59.15,32-7.34,49.57-1.56,53.91,3.21,2.41,7.42-1.58,30.08-3.91,3-.3,7.49-.71,9.76,2,2,2.35.94,5.57.39,10.15-1.73,14.58,4.65,19.23.79,24.62-2.82,3.92-8.43,4.58-16,5.47-10.61,1.24-14.85-1.46-16.41.78-2.22,3.19,5,10.77,16.8,29.3,9.28,14.52,9.55,17.19,9,19.53-2.34,9.73-19.9,16.53-33.59,12.89a29.42,29.42,0,0,1-10.16-5.08c-19.09-14.14-21.55-42.25-27.35-66.8C757,165.38,756.92,167.51,754.77,157.47Z"/><path class="cls-2" d="M343.55,323.57c4.75-2.22,21-12.73,41.48-2,12.09,6.34-16.89,20.5-16.4,45.31,0,1.33,1,27.83,21.87,37.51,16.67,7.72,39,1.48,45.32-10.94,7.7-15.14-13.87-28.66-8.59-55.48.61-3.09,5-23.56,21.09-29.69,15.64-5.93,31.71,5.64,33.6,7,23.22,17.23,21.2,53.66,20.31,69.53-.6,10.86-2,31.75-15.62,53.92-4.63,7.54-20.5,32.53-53.13,43.75-10.62,3.65-42.52,12.55-75-4.69-6.33-3.36-31.45-16.48-40.63-43.75-4.35-12.93-6.36-7.93-5.61-59,.16-10.72,4.68-28.25,13.2-37.27C328.25,334.81,336.82,326.72,343.55,323.57Z"/><path d="M630.18,359.66c-4.47-7.37-12.94-21.3-29.69-28.13-5.58-2.27-13.42-4.31-35.16-2.35-35.45,3.21-53.17,4.81-61,14.85-13.84,17.88,12.79,37.19,8.6,83.6-2.49,27.52-12.75,30.73-18.75,75-5.32,39.2,1.32,47,5.46,50,11.3,8.1,30-1.33,32-2.34,11.09-5.59,22.65-17.44,24.22-32,1.69-15.7-9.76-19.82-14.06-46.88-1-6.57-3.74-23.48,2.34-26.56,5.35-2.71,11.11,8.52,25.78,13.28,23,7.46,45.91-8.14,47.66-9.37a61.13,61.13,0,0,0,23.44-33.6C648.16,389.27,635.18,367.89,630.18,359.66Zm-22.29,38.15c-.8,11.44-10.14,22.39-21.5,23.64-10.48,1.16-22.07-6-22.21-12.18-.06-2.48,1.8-2.79,3.58-6.45,5-10.28-3.91-19.58.72-26.51,2.36-3.54,6.8-4.32,10.3-4.93,9-1.57,18.58,2.61,24.09,9.94A25.16,25.16,0,0,1,607.89,397.81Z"/><path d="M708.71,329.26c3.76-4.16,15.25,7.31,29.89,4.69,7.09-1.27,15.46-5.95,18.75-13.48,6.37-14.6-9.76-32.26-13.48-36.33A61.21,61.21,0,0,0,711.64,266c-5.89-1.25-27.33-5.8-45.12,7.62-15.31,11.55-18.17,29.07-19.92,39.85s-3.46,21.18,2.34,30.47c6.89,11,21.6,16,31.64,19.34,10.82,3.62,17.16,3.58,22.27,10,.81,1,6,7.66,4.1,15.23-2.14,8.69-12.45,14.3-20.51,13.48-7.79-.78-9-7.12-17.58-8.2-7.34-.92-13.39,2.82-16.4,4.69-10.59,6.54-16.74,18.83-17.58,28.71-2,23.92,26.09,45.14,46.88,53.33,39.7,15.63,75.59-7.24,77.93-8.79,7.36-4.87,25.84-17.09,31.06-39.85,4.83-21.08-4.48-39.15-9.38-48.64-5-9.74-10.2-20.21-21.68-27.54-5.69-3.64-21.93-14-38.67-14.06-2.34,0-8.13.17-11.14-3.52C707.9,335.61,706.92,331.23,708.71,329.26Z"/><path class="cls-2" d="M877.44,407.75c4.07,2.25,27.2-28.74,42.19-63.29,14.62-33.7,10-44.43,8.24-47.95-6.09-11.81-21.36-20.45-33.44-17.09-17.12,4.76-25.68,33-18.75,50.39,5.45,13.66,19.91,19.12,18.16,31.06-.54,3.7-2.21,5.08-5.27,10C878.84,386.35,874.54,406.15,877.44,407.75Z"/><path class="cls-2" d="M860.44,440.58c1.21.93,8.82,6.58,17.58,3.51,6.8-2.37,12.64-9.42,11.72-16.4-1.3-9.92-15.33-12.88-18.16-13.48s-13.65-2.88-18.17,2.93C848.71,423.19,853.11,434.91,860.44,440.58Z"/><path class="cls-2" d="M959.48,410.1c4.06,2.24,27.2-28.74,42.19-63.29,14.62-33.71,10.05-44.44,8.24-47.95-6.09-11.82-21.36-20.45-33.44-17.1-17.12,4.76-25.68,33-18.75,50.4,5.45,13.65,19.91,19.12,18.16,31.06-.54,3.7-2.21,5.07-5.27,10C960.88,388.69,956.58,408.5,959.48,410.1Z"/><path class="cls-2" d="M942.48,442.92c1.21.94,8.82,6.59,17.58,3.52,6.79-2.38,12.64-9.42,11.72-16.41-1.3-9.92-15.33-12.88-18.16-13.48s-13.65-2.88-18.17,2.93C930.75,425.53,935.15,437.26,942.48,442.92Z"/></g></svg>